<svg xmlns="http://www.w3.org/2000/svg" xmlns:xlink="http://www.w3.org/1999/xlink" viewBox="0 0 212.29 37.25"><defs><style>.cls-1{isolation:isolate;}.cls-2{fill:url(#radial-gradient);}.cls-3{fill:#bc8c75;}.cls-29,.cls-36,.cls-37,.cls-4,.cls-5,.cls-61{opacity:0.4;}.cls-4{fill:url(#linear-gradient);}.cls-11,.cls-12,.cls-14,.cls-15,.cls-16,.cls-17,.cls-18,.cls-19,.cls-20,.cls-21,.cls-23,.cls-24,.cls-25,.cls-26,.cls-28,.cls-29,.cls-30,.cls-37,.cls-38,.cls-39,.cls-40,.cls-41,.cls-43,.cls-44,.cls-46,.cls-47,.cls-48,.cls-49,.cls-5,.cls-50,.cls-51,.cls-52,.cls-53,.cls-55,.cls-56,.cls-57,.cls-58,.cls-6,.cls-60,.cls-61,.cls-62,.cls-7,.cls-8,.cls-9{mix-blend-mode:multiply;}.cls-5{fill:url(#linear-gradient-2);}.cls-12,.cls-15,.cls-16,.cls-20,.cls-22,.cls-23,.cls-24,.cls-30,.cls-31,.cls-32,.cls-33,.cls-38,.cls-40,.cls-44,.cls-47,.cls-48,.cls-52,.cls-54,.cls-55,.cls-56,.cls-6,.cls-62,.cls-63,.cls-64,.cls-8{opacity:0.5;}.cls-6{fill:url(#linear-gradient-3);}.cls-17,.cls-28,.cls-39,.cls-49,.cls-60,.cls-7{opacity:0.7;}.cls-7{fill:url(#radial-gradient-2);}.cls-8{fill:url(#radial-gradient-3);}.cls-14,.cls-21,.cls-25,.cls-27,.cls-41,.cls-46,.cls-53,.cls-57,.cls-59,.cls-9{opacity:0.2;}.cls-9{fill:url(#linear-gradient-4);}.cls-10,.cls-13,.cls-19,.cls-42,.cls-45,.cls-51{opacity:0.1;}.cls-10,.cls-13,.cls-22,.cls-27,.cls-31,.cls-32,.cls-33,.cls-42,.cls-45,.cls-54,.cls-59,.cls-63,.cls-64{mix-blend-mode:screen;}.cls-10{fill:url(#linear-gradient-5);}.cls-11,.cls-26,.cls-43,.cls-58{opacity:0.3;}.cls-11{fill:url(#linear-gradient-6);}.cls-12{fill:url(#radial-gradient-4);}.cls-13{fill:url(#linear-gradient-7);}.cls-14{fill:url(#linear-gradient-8);}.cls-15{fill:url(#linear-gradient-9);}.cls-16{fill:url(#linear-gradient-10);}.cls-17{fill:url(#linear-gradient-11);}.cls-18,.cls-50{opacity:0.6;}.cls-18{fill:url(#radial-gradient-5);}.cls-19{fill:url(#linear-gradient-12);}.cls-20{fill:url(#linear-gradient-13);}.cls-21{fill:url(#linear-gradient-14);}.cls-22{fill:url(#linear-gradient-15);}.cls-23{fill:url(#radial-gradient-6);}.cls-24{fill:url(#linear-gradient-16);}.cls-25{fill:url(#linear-gradient-17);}.cls-26{fill:url(#linear-gradient-18);}.cls-27{fill:url(#linear-gradient-19);}.cls-28{fill:url(#radial-gradient-7);}.cls-29{fill:url(#radial-gradient-8);}.cls-30{fill:url(#radial-gradient-9);}.cls-31{fill:url(#linear-gradient-20);}.cls-32{fill:url(#linear-gradient-21);}.cls-33{fill:#fff;}.cls-34{fill:url(#radial-gradient-10);}.cls-35{fill:url(#radial-gradient-11);}.cls-36{fill:url(#linear-gradient-22);}.cls-37{fill:url(#linear-gradient-23);}.cls-38{fill:url(#linear-gradient-24);}.cls-39{fill:url(#radial-gradient-12);}.cls-40{fill:url(#radial-gradient-13);}.cls-41{fill:url(#linear-gradient-25);}.cls-42{fill:url(#linear-gradient-26);}.cls-43{fill:url(#linear-gradient-27);}.cls-44{fill:url(#radial-gradient-14);}.cls-45{fill:url(#linear-gradient-28);}.cls-46{fill:url(#linear-gradient-29);}.cls-47{fill:url(#linear-gradient-30);}.cls-48{fill:url(#linear-gradient-31);}.cls-49{fill:url(#linear-gradient-32);}.cls-50{fill:url(#radial-gradient-15);}.cls-51{fill:url(#linear-gradient-33);}.cls-52{fill:url(#linear-gradient-34);}.cls-53{fill:url(#linear-gradient-35);}.cls-54{fill:url(#linear-gradient-36);}.cls-55{fill:url(#radial-gradient-16);}.cls-56{fill:url(#linear-gradient-37);}.cls-57{fill:url(#linear-gradient-38);}.cls-58{fill:url(#linear-gradient-39);}.cls-59{fill:url(#linear-gradient-40);}.cls-60{fill:url(#radial-gradient-17);}.cls-61{fill:url(#radial-gradient-18);}.cls-62{fill:url(#radial-gradient-19);}.cls-63{fill:url(#linear-gradient-41);}.cls-64{fill:url(#linear-gradient-42);}.cls-65{fill:url(#radial-gradient-20);}</style><radialGradient id="radial-gradient" cx="147.53" cy="213.09" r="2.77" gradientTransform="matrix(1.04, -0.02, 0.03, 0.96, 35.88, -193.4)" gradientUnits="userSpaceOnUse"><stop offset="0" stop-color="#7d564c"/><stop offset="0.99" stop-color="#58403a"/></radialGradient><linearGradient id="linear-gradient" x1="194.47" y1="50.23" x2="199.14" y2="50.33" gradientTransform="translate(-2.19 -27.11) rotate(-1.44)" xlink:href="#radial-gradient"/><linearGradient id="linear-gradient-2" x1="194.47" y1="50.45" x2="199.14" y2="50.55" gradientTransform="translate(-2.19 -27.11) rotate(-1.44)" xlink:href="#radial-gradient"/><linearGradient id="linear-gradient-3" x1="194.57" y1="45.91" x2="199.23" y2="46.01" gradientTransform="translate(-2.19 -27.11) rotate(-1.44)" gradientUnits="userSpaceOnUse"><stop offset="0" stop-color="#58403a"/><stop offset="0.53" stop-color="#7d564c"/><stop offset="1" stop-color="#a78f89"/></linearGradient><radialGradient id="radial-gradient-2" cx="149.61" cy="218.15" r="33.7" gradientTransform="matrix(1.04, -0.02, 0.03, 0.96, 35.88, -193.4)" gradientUnits="userSpaceOnUse"><stop offset="0.23" stop-color="#a78f89"/><stop offset="0.58" stop-color="#7d564c"/><stop offset="1" stop-color="#58403a"/></radialGradient><radialGradient id="radial-gradient-3" cx="77.73" cy="224.5" r="11.12" gradientTransform="matrix(1.04, -0.02, 0.03, 0.96, 35.88, -193.4)" gradientUnits="userSpaceOnUse"><stop offset="0.46" stop-color="#a78f89"/><stop offset="0.91" stop-color="#7d564c"/><stop offset="1" stop-color="#58403a"/></radialGradient><linearGradient id="linear-gradient-4" x1="126.83" y1="56.25" x2="139.07" y2="56.25" gradientTransform="translate(-2.19 -27.11) rotate(-1.44)" gradientUnits="userSpaceOnUse"><stop offset="0" stop-color="#c3ab85"/><stop offset="0.33" stop-color="#824f00"/><stop offset="1" stop-color="#473210"/></linearGradient><linearGradient id="linear-gradient-5" x1="128.11" y1="51.02" x2="147.44" y2="51.02" gradientTransform="translate(-2.19 -27.11) rotate(-1.44)" gradientUnits="userSpaceOnUse"><stop offset="0" stop-color="#fe946b"/><stop offset="1" stop-color="#fff0b5"/></linearGradient><linearGradient id="linear-gradient-6" x1="128.11" y1="42.77" x2="147.44" y2="42.77" gradientTransform="translate(-2.19 -27.11) rotate(-1.44)" gradientUnits="userSpaceOnUse"><stop offset="0" stop-color="#a78f89"/><stop offset="0.47" stop-color="#7d564c"/><stop offset="1" stop-color="#58403a"/></linearGradient><radialGradient id="radial-gradient-4" cx="94.7" cy="231.32" r="6.6" gradientTransform="matrix(1.04, -0.02, 0.03, 0.96, 35.88, -193.4)" xlink:href="#linear-gradient-6"/><linearGradient id="linear-gradient-7" x1="142.41" y1="43.46" x2="148.12" y2="43.46" xlink:href="#linear-gradient-5"/><linearGradient id="linear-gradient-8" x1="138.84" y1="51.19" x2="152.77" y2="51.19" xlink:href="#linear-gradient-4"/><linearGradient id="linear-gradient-9" x1="147.42" y1="51.6" x2="149.92" y2="51.6" xlink:href="#linear-gradient-6"/><linearGradient id="linear-gradient-10" x1="147.42" y1="45.52" x2="149.92" y2="45.52" xlink:href="#linear-gradient-6"/><linearGradient id="linear-gradient-11" x1="148.06" y1="59.41" x2="152.32" y2="59.41" gradientTransform="translate(-2.19 -27.11) rotate(-1.44)" xlink:href="#radial-gradient"/><radialGradient id="radial-gradient-5" cx="93.26" cy="226.45" r="18.65" gradientTransform="matrix(1.04, -0.02, 0.03, 0.96, 35.88, -193.4)" gradientUnits="userSpaceOnUse"><stop offset="0.55" stop-color="#a78f89"/><stop offset="0.86" stop-color="#7d564c"/><stop offset="1" stop-color="#58403a"/></radialGradient><linearGradient id="linear-gradient-12" x1="159.78" y1="48.58" x2="165.54" y2="48.58" xlink:href="#linear-gradient-4"/><linearGradient id="linear-gradient-13" x1="159.78" y1="48.1" x2="165.53" y2="48.1" xlink:href="#linear-gradient-6"/><linearGradient id="linear-gradient-14" x1="153.94" y1="51.33" x2="168.39" y2="51.33" xlink:href="#linear-gradient-4"/><linearGradient id="linear-gradient-15" x1="156.79" y1="58.92" x2="163.54" y2="58.92" xlink:href="#linear-gradient-5"/><radialGradient id="radial-gradient-6" cx="124.71" cy="217.09" r="16.77" gradientTransform="matrix(1.04, -0.02, 0.03, 0.96, 35.88, -193.4)" gradientUnits="userSpaceOnUse"><stop offset="0" stop-color="#a78f89"/><stop offset="0.58" stop-color="#7d564c"/><stop offset="1" stop-color="#58403a"/></radialGradient><linearGradient id="linear-gradient-16" x1="169.54" y1="47.41" x2="179.82" y2="47.41" xlink:href="#linear-gradient-6"/><linearGradient id="linear-gradient-17" x1="172.9" y1="49.02" x2="184.7" y2="49.02" xlink:href="#linear-gradient-4"/><linearGradient id="linear-gradient-18" x1="172.9" y1="45.65" x2="184.7" y2="45.65" xlink:href="#linear-gradient-6"/><linearGradient id="linear-gradient-19" x1="165.05" y1="47.09" x2="171.97" y2="47.09" gradientTransform="translate(-2.19 -27.11) rotate(-1.44)" gradientUnits="userSpaceOnUse"><stop offset="0.11" stop-color="#ffefdb"/><stop offset="0.45" stop-color="#bba289"/><stop offset="1"/></linearGradient><radialGradient id="radial-gradient-7" cx="115.84" cy="229.15" r="17.34" xlink:href="#radial-gradient-6"/><radialGradient id="radial-gradient-8" cx="129.26" cy="59.92" r="186.69" gradientTransform="matrix(1.04, -0.02, 0.03, 0.96, 35.88, -193.4)" gradientUnits="userSpaceOnUse"><stop offset="0.88" stop-color="#fff"/><stop offset="0.95" stop-color="#7d564c"/><stop offset="1" stop-color="#58403a"/></radialGradient><radialGradient id="radial-gradient-9" cx="129.26" cy="63.41" r="183.28" xlink:href="#radial-gradient-8"/><linearGradient id="linear-gradient-20" x1="170.19" y1="35.63" x2="170.19" y2="46.29" xlink:href="#linear-gradient-5"/><linearGradient id="linear-gradient-21" x1="170.19" y1="35.63" x2="170.19" y2="46.29" gradientTransform="translate(-2.19 -27.11) rotate(-1.44)" gradientUnits="userSpaceOnUse"><stop offset="0" stop-color="#ea8057"/><stop offset="1" stop-color="#ffdca1"/></linearGradient><radialGradient id="radial-gradient-10" cx="160.56" cy="220.42" r="9.49" xlink:href="#radial-gradient"/><radialGradient id="radial-gradient-11" cx="4481.31" cy="317.34" r="2.77" gradientTransform="matrix(-1.04, -0.02, -0.03, 0.96, 4685.85, -193.4)" xlink:href="#radial-gradient"/><linearGradient id="linear-gradient-22" x1="4446.73" y1="152.78" x2="4451.39" y2="152.88" gradientTransform="matrix(-1, -0.03, -0.03, 1, 4468.04, -27.11)" xlink:href="#radial-gradient"/><linearGradient id="linear-gradient-23" x1="4446.72" y1="152.99" x2="4451.39" y2="153.09" gradientTransform="matrix(-1, -0.03, -0.03, 1, 4468.04, -27.11)" xlink:href="#radial-gradient"/><linearGradient id="linear-gradient-24" x1="4446.82" y1="148.45" x2="4451.49" y2="148.55" gradientTransform="matrix(-1, -0.03, -0.03, 1, 4468.04, -27.11)" xlink:href="#linear-gradient-3"/><radialGradient id="radial-gradient-12" cx="4483.4" cy="322.4" r="33.7" gradientTransform="matrix(-1.04, -0.02, -0.03, 0.96, 4685.85, -193.4)" xlink:href="#radial-gradient-2"/><radialGradient id="radial-gradient-13" cx="4411.52" cy="328.75" r="11.12" gradientTransform="matrix(-1.04, -0.02, -0.03, 0.96, 4685.85, -193.4)" xlink:href="#radial-gradient-3"/><linearGradient id="linear-gradient-25" x1="4379.08" y1="158.79" x2="4391.32" y2="158.79" gradientTransform="matrix(-1, -0.03, -0.03, 1, 4468.04, -27.11)" xlink:href="#linear-gradient-4"/><linearGradient id="linear-gradient-26" x1="4380.36" y1="153.57" x2="4399.69" y2="153.57" gradientTransform="matrix(-1, -0.03, -0.03, 1, 4468.04, -27.11)" xlink:href="#linear-gradient-5"/><linearGradient id="linear-gradient-27" x1="4380.36" y1="145.31" x2="4399.69" y2="145.31" gradientTransform="matrix(-1, -0.03, -0.03, 1, 4468.04, -27.11)" xlink:href="#linear-gradient-6"/><radialGradient id="radial-gradient-14" cx="4428.49" cy="335.57" r="6.6" gradientTransform="matrix(-1.04, -0.02, -0.03, 0.96, 4685.85, -193.4)" xlink:href="#linear-gradient-6"/><linearGradient id="linear-gradient-28" x1="4394.66" y1="146" x2="4400.37" y2="146" gradientTransform="matrix(-1, -0.03, -0.03, 1, 4468.04, -27.11)" xlink:href="#linear-gradient-5"/><linearGradient id="linear-gradient-29" x1="4391.1" y1="153.74" x2="4405.02" y2="153.74" gradientTransform="matrix(-1, -0.03, -0.03, 1, 4468.04, -27.11)" xlink:href="#linear-gradient-4"/><linearGradient id="linear-gradient-30" x1="4399.67" y1="154.15" x2="4402.18" y2="154.15" gradientTransform="matrix(-1, -0.03, -0.03, 1, 4468.04, -27.11)" xlink:href="#linear-gradient-6"/><linearGradient id="linear-gradient-31" x1="4399.67" y1="148.06" x2="4402.18" y2="148.06" gradientTransform="matrix(-1, -0.03, -0.03, 1, 4468.04, -27.11)" xlink:href="#linear-gradient-6"/><linearGradient id="linear-gradient-32" x1="4400.31" y1="161.95" x2="4404.58" y2="161.95" gradientTransform="matrix(-1, -0.03, -0.03, 1, 4468.04, -27.11)" xlink:href="#radial-gradient"/><radialGradient id="radial-gradient-15" cx="4427.05" cy="330.7" r="18.65" gradientTransform="matrix(-1.04, -0.02, -0.03, 0.96, 4685.85, -193.4)" xlink:href="#radial-gradient-5"/><linearGradient id="linear-gradient-33" x1="4412.03" y1="151.12" x2="4417.79" y2="151.12" gradientTransform="matrix(-1, -0.03, -0.03, 1, 4468.04, -27.11)" xlink:href="#linear-gradient-4"/><linearGradient id="linear-gradient-34" x1="4412.03" y1="150.65" x2="4417.78" y2="150.65" gradientTransform="matrix(-1, -0.03, -0.03, 1, 4468.04, -27.11)" xlink:href="#linear-gradient-6"/><linearGradient id="linear-gradient-35" x1="4406.19" y1="153.87" x2="4420.64" y2="153.87" gradientTransform="matrix(-1, -0.03, -0.03, 1, 4468.04, -27.11)" xlink:href="#linear-gradient-4"/><linearGradient id="linear-gradient-36" x1="4409.04" y1="161.47" x2="4415.79" y2="161.47" gradientTransform="matrix(-1, -0.03, -0.03, 1, 4468.04, -27.11)" xlink:href="#linear-gradient-5"/><radialGradient id="radial-gradient-16" cx="4458.5" cy="321.34" r="16.77" gradientTransform="matrix(-1.04, -0.02, -0.03, 0.96, 4685.85, -193.4)" xlink:href="#radial-gradient-6"/><linearGradient id="linear-gradient-37" x1="4421.79" y1="149.95" x2="4432.07" y2="149.95" gradientTransform="matrix(-1, -0.03, -0.03, 1, 4468.04, -27.11)" xlink:href="#linear-gradient-6"/><linearGradient id="linear-gradient-38" x1="4425.15" y1="151.56" x2="4436.95" y2="151.56" gradientTransform="matrix(-1, -0.03, -0.03, 1, 4468.04, -27.11)" xlink:href="#linear-gradient-4"/><linearGradient id="linear-gradient-39" x1="4425.15" y1="148.19" x2="4436.95" y2="148.19" gradientTransform="matrix(-1, -0.03, -0.03, 1, 4468.04, -27.11)" xlink:href="#linear-gradient-6"/><linearGradient id="linear-gradient-40" x1="4417.3" y1="149.64" x2="4424.23" y2="149.64" gradientTransform="matrix(-1, -0.03, -0.03, 1, 4468.04, -27.11)" xlink:href="#linear-gradient-19"/><radialGradient id="radial-gradient-17" cx="4449.62" cy="333.4" r="17.34" gradientTransform="matrix(-1.04, -0.02, -0.03, 0.96, 4685.85, -193.4)" xlink:href="#radial-gradient-6"/><radialGradient id="radial-gradient-18" cx="4463.04" cy="164.17" r="186.69" gradientTransform="matrix(-1.04, -0.02, -0.03, 0.96, 4685.85, -193.4)" xlink:href="#radial-gradient-8"/><radialGradient id="radial-gradient-19" cx="4463.04" cy="167.66" r="183.28" gradientTransform="matrix(-1.04, -0.02, -0.03, 0.96, 4685.85, -193.4)" xlink:href="#radial-gradient-8"/><linearGradient id="linear-gradient-41" x1="4422.44" y1="138.18" x2="4422.44" y2="148.84" gradientTransform="matrix(-1, -0.03, -0.03, 1, 4468.04, -27.11)" xlink:href="#linear-gradient-5"/><linearGradient id="linear-gradient-42" x1="4422.44" y1="138.18" x2="4422.44" y2="148.84" gradientTransform="matrix(-1, -0.03, -0.03, 1, 4468.04, -27.11)" xlink:href="#linear-gradient-21"/><radialGradient id="radial-gradient-20" cx="4494.35" cy="324.67" r="9.49" gradientTransform="matrix(-1.04, -0.02, -0.03, 0.96, 4685.85, -193.4)" xlink:href="#radial-gradient"/></defs><title>Asset 1</title><g class="cls-1"><g id="Layer_2" data-name="Layer 2"><g id="Layer_1-2" data-name="Layer 1"><path class="cls-2" d="M191.67,7.16c-.17,1.18,3,2.66,4.84,2C197.8,8.71,198,7.49,198,6.35c0-.29,0-.62,0-1A23.21,23.21,0,0,1,195.58,5c-1.06-.29-1,.24-2.16.05l-1.81-.27A8.08,8.08,0,0,1,191.67,7.16Z"/><path class="cls-3" d="M114.47,29.12a7,7,0,0,0,1.84,1.16c.76.23,5.72,1.64,6.74,2.29,0,0,2.4-.13,3.11-.07a17.88,17.88,0,0,1,2.81.85,49.36,49.36,0,0,0,5.05.23l1.8.93,2.71-.55s4.49.43,4.57.38,2.32-.24,2.32-.24a11,11,0,0,0,1.84.7,8.7,8.7,0,0,0,2.21.23,7.87,7.87,0,0,1,2.37.22,11,11,0,0,1,3.83.75l1.13-.87a6.24,6.24,0,0,0,1.46,0,15,15,0,0,1,2.54.31c.48,0,1.83-.24,1.83-.24a1.33,1.33,0,0,0,1.12.54c.8,0,6.83.22,7,.53s8.2-.44,8.2-.44,3.68.44,4.38.59,1.61.22,1.61.22l2.63.64,9.48-.42,6.75.33s4.63-.85,4.83-.91,3.65-.09,3.65-.09l-.8-29-84.95-.49A10.54,10.54,0,0,0,124.23,9c-.14.35.58,1.66.82,2.27s.53,5.47.69,6a4.42,4.42,0,0,1-.84,2.37c-.8,1-2.83,3.74-3.56,4.66a24.61,24.61,0,0,1-3.84,2.87C116.62,27.75,114.47,29.12,114.47,29.12Z"/><path class="cls-4" d="M197.62,9.08q-2.18,1.35-4.29,2.77a60.37,60.37,0,0,0,3.11,6.84,60.54,60.54,0,0,0-.06,8.62c.91-5.64,2-11.25,3.16-16.8C198.9,10,198.25,9.57,197.62,9.08Z"/><path class="cls-5" d="M196.57,24.94c.21-2.25.43-4.5.49-6.76.05-2-.13-3.94-.23-5.92a13.85,13.85,0,0,1,.1-2.74c-1.21.76-2.42,1.53-3.6,2.33a60.37,60.37,0,0,0,3.11,6.84,60.54,60.54,0,0,0-.06,8.62l.09-.55C196.48,26.16,196.51,25.55,196.57,24.94Z"/><path class="cls-6" d="M195.27,14.74c-.21-.76.74-1.83,1.47-2.06a2.1,2.1,0,0,1,2.16.93c.21-1,.42-2.07.64-3.1-.64-.47-1.29-.94-1.92-1.43q-2.18,1.35-4.29,2.77a59.74,59.74,0,0,0,3.1,6.8C196.15,17.34,195.67,16.1,195.27,14.74Z"/><path class="cls-7" d="M200.27,7c-1.42,6.67-2.8,13.46-3.89,20.27a60.54,60.54,0,0,1,.06-8.62A53.38,53.38,0,0,1,191.78,7l-8.78,0a15.34,15.34,0,0,1,.39,2.11c.18,1.68.38,3.36.67,5s.54,3.08.71,4.64c0,.46.09.93.16,1.4.46.89,1.22,1.75,1.2,2.75,0,1.6-.86,3.06-1,4.66s.24,3.21.26,4.85a33.87,33.87,0,0,1-.26,4.27l2.42.59,9.48-.42,6.75.33s4.63-.85,4.83-.91,3.65-.09,3.65-.09l-.8-29Z"/><path class="cls-8" d="M130.93,17.71c-1.56-3.61-3.33-7.3-4.12-11.09h-.27A10.54,10.54,0,0,0,124.23,9c-.14.35.58,1.66.82,2.27s.53,5.47.69,6a4.42,4.42,0,0,1-.84,2.37c-.8,1-2.83,3.74-3.56,4.66a24.61,24.61,0,0,1-3.84,2.87c-.88.64-3,2-3,2a7,7,0,0,0,1.84,1.16c.76.23,5.72,1.64,6.74,2.29,0,0,2.4-.13,3.11-.07h0c.9-1.9,1.8-3.77,2.53-5.59C130,24.11,130.26,20.85,130.93,17.71Z"/><path class="cls-9" d="M133.49,25.42a34.86,34.86,0,0,0-2.56-7.71c-.67,3.14-.91,6.4-2.22,9.2-.73,1.82-1.63,3.69-2.53,5.59a17.73,17.73,0,0,1,2.79.85,49.36,49.36,0,0,0,5.05.23l.44.23C134.16,31,133.86,28.12,133.49,25.42Z"/><path class="cls-10" d="M140.09,17.13c-1.28-3.43-2.5-6.86-2.54-10.45l-10.74-.06c1.35,6.54,5.65,12.75,6.68,18.8.37,2.7.67,5.54,1,8.39l1.36.7,2.37-.48C138,28.28,138,22.57,140.09,17.13Z"/><path class="cls-11" d="M136,9.39c1.21.32,1.59,2.32,1.83,3.24a33.71,33.71,0,0,0,2,5.27c.09-.26.18-.51.28-.77-1.28-3.43-2.5-6.86-2.54-10.45l-10.74-.06c.08.42.19.85.3,1.27,2,2.06,6,1.06,8.65,1.4A.23.23,0,0,1,136,9.39Z"/><path class="cls-12" d="M141.27,23.57c.31.27.59-.57.89-.3-.54-2.07-1.32-4.1-2.07-6.14C138,22.57,138,28.28,138.19,34l.34-.07s4.49.43,4.57.38h0C142.39,30.75,141.37,27.17,141.27,23.57Z"/><path class="cls-13" d="M144.51,6.72l-3.39,0a41.75,41.75,0,0,0,6,11.94C146.62,14.74,144.81,10.76,144.51,6.72Z"/><path class="cls-14" d="M141.12,6.7l-3.57,0c.06,5.73,3.14,11,4.61,16.59-.3-.27-.58.57-.89.3.1,3.6,1.12,7.18,1.85,10.77.2-.06,2.3-.24,2.3-.24l.22.1c.44-4.31,1.52-8.62,1.6-12.71a13.66,13.66,0,0,0-.11-2.85A41.75,41.75,0,0,1,141.12,6.7Z"/><path class="cls-15" d="M150,6.75l-5.44,0c.3,4,2.11,8,2.62,11.92a13.66,13.66,0,0,1,.11,2.85c-.08,4.09-1.16,8.4-1.6,12.71a7.53,7.53,0,0,0,1.62.6l.22,0a8.64,8.64,0,0,1,.08-1.42c1.81-8,2.22-15.78.19-23.45A9.3,9.3,0,0,0,150,6.75Z"/><path class="cls-16" d="M146.45,9.37a.31.31,0,0,1,.32.28,22.47,22.47,0,0,0,1.29,5.26,27.62,27.62,0,0,1,.71,4.61c.1,1,.2,2.06.29,3.09A42.35,42.35,0,0,0,147.75,10,9.3,9.3,0,0,0,150,6.75l-5.44,0A21.52,21.52,0,0,0,145,9.79,7.9,7.9,0,0,1,146.45,9.37Z"/><path class="cls-17" d="M147.56,33.41a8.64,8.64,0,0,0-.08,1.42,6,6,0,0,0,2,.2,7.4,7.4,0,0,1,2.29.2,44.6,44.6,0,0,0-2.67-13.51A59.61,59.61,0,0,1,147.56,33.41Z"/><path class="cls-18" d="M156,21.29c-.39-4.7-2-9.6-3.31-14.52l-2.7,0a9.3,9.3,0,0,1-2.2,3.21,41.88,41.88,0,0,1,1.34,11.76,44.6,44.6,0,0,1,2.67,13.51l.08,0a11,11,0,0,1,3.83.75l.85-.65C156.34,30.59,156.31,25.87,156,21.29Z"/><path class="cls-19" d="M161.31,6.82l-2.81,0A152.9,152.9,0,0,0,162.91,28C162.64,20.94,161.65,13.89,161.31,6.82Z"/><path class="cls-20" d="M162.86,27c-.31-6.71-1.23-13.44-1.55-20.19l-2.81,0c.24,1.76.51,3.5.81,5.24C162.84,16.08,162.23,22,162.86,27Z"/><path class="cls-21" d="M162.91,28A152.9,152.9,0,0,1,158.5,6.8l-5.85,0c1.2,4.52,2.65,9,3.19,13.36,2.52,4.54,5.69,8.76,7.09,13.52C163,31.75,163,29.86,162.91,28Z"/><path class="cls-22" d="M155.84,20.13c0,.39.09.77.12,1.16.35,4.58.38,9.3.56,14.06l.28-.22a6.24,6.24,0,0,0,1.46,0,15,15,0,0,1,2.54.31c.48,0,1.83-.24,1.83-.24a1.07,1.07,0,0,0,.22.23c0-.58.06-1.17.08-1.75C161.53,28.89,158.36,24.67,155.84,20.13Z"/><path class="cls-23" d="M168.26,6.86c.92,5.06,1.82,10.13,2.48,15.2,1,4.73.64,9.5.6,14.26,1.87,0,7.62-.52,7.62-.52l.22,0a37,37,0,0,1-.07-6.49c0-.44,0-.88,0-1.32-1.1-7.3-4.32-14.36-7.46-21.14Z"/><path class="cls-24" d="M172.44,13.27c1.78,1.25,2.53,3.61,3.37,5.42.95,2.06,1.86,4.13,2.68,6.23-1.43-6.2-4.18-12.23-6.87-18l-3.36,0c.46,2.49.9,5,1.32,7.48a14.15,14.15,0,0,1,2.49-1.25A.27.27,0,0,1,172.44,13.27Z"/><path class="cls-25" d="M179.62,16.86c-.32-1.27-.6-2.55-1-3.8A44.62,44.62,0,0,1,177,6.91l-5.38,0c3.14,6.78,6.36,13.84,7.46,21.14a38.19,38.19,0,0,1,.48-6.3A11.22,11.22,0,0,0,179.62,16.86Z"/><path class="cls-26" d="M177.17,11.89a.29.29,0,0,1,.49,0A19.4,19.4,0,0,1,179.44,19c.08.76.15,1.53.19,2.3a10.25,10.25,0,0,0,0-4.41c-.32-1.27-.6-2.55-1-3.8A44.62,44.62,0,0,1,177,6.91l-5.38,0c1.31,2.83,2.63,5.71,3.81,8.64a6.2,6.2,0,0,1-.1-2.1.22.22,0,0,1,.14-.19,7.46,7.46,0,0,1,1.63-1.3Z"/><path class="cls-27" d="M171.14,24.62a24.75,24.75,0,0,0-.4-2.56c-.66-5.07-1.56-10.14-2.48-15.2l-4.49,0A62.84,62.84,0,0,1,167,19.9,45.27,45.27,0,0,1,171.14,24.62Z"/><path class="cls-28" d="M171.14,24.62A45.27,45.27,0,0,0,167,19.9a62.84,62.84,0,0,0-3.2-13.07h-2.46c.45,9.57,2.12,19.11,1.54,28.58a1.48,1.48,0,0,0,.9.31c.8,0,6.83.22,7,.53,0,0,.24.07.58.08A91.36,91.36,0,0,0,171.14,24.62Z"/><path class="cls-29" d="M210.46,26.38c-.93,1.84-2,3.07-4.31,2.18-1.2-.46-2.41-.89-3.59-1.4s-3.29-1.74-4.56-1-1.85,1.78-2.94,2.51a6.62,6.62,0,0,1-3.06,1c-1.65.19-4.4.76-5.15-1.16a4.79,4.79,0,0,1-.21-2.57c.23-1.45,1.12-3.24,0-4.53a14.21,14.21,0,0,1-2.47-4.32,11,11,0,0,0,.38,3.39,6.42,6.42,0,0,1,.69,3v0c-.33,1.82-1.85,3.5-1.64,5.38.15,1.39.58,2.85-.14,4.15a.32.32,0,0,1-.48.07c-2.66-1.93-3.12-5.48-2.88-8.39.15-1.87.71-3.7.4-5.58a19.64,19.64,0,0,0-1.76-5.19,24.41,24.41,0,0,1,.27,2.56c.09,1.46.53,3.7-.38,5a.33.33,0,0,1-.49.07A6.93,6.93,0,0,1,176.87,20a19,19,0,0,1,.3,10.12.33.33,0,0,1-.38.2,7.39,7.39,0,0,1-3.65-1.73,6.4,6.4,0,0,1-1.5-3.68,69.85,69.85,0,0,0-1.93-8.2,27.55,27.55,0,0,1,.1,4.54.31.31,0,0,1-.38.28A9.26,9.26,0,0,1,166.75,20c1.26,1.72,2.86,3.3,3.21,5.38.28,1.62.62,4.32-1.51,5-1.38.44-4.23,1.06-5-.59-.52-1.16-.39-2.38-.66-3.58a.29.29,0,0,0,0-.09,23,23,0,0,1-.19,3.7c0,.3-.5.25-.59,0a64.15,64.15,0,0,0-4.2-8.42c-1-1.88-1.81-3.87-2.91-5.69a53.94,53.94,0,0,1,0,9.76c-.16,1.89,0,3.81-.2,5.69,0,.38-.14,1-.75.9a2.63,2.63,0,0,1-1.63-2.1,21.86,21.86,0,0,0-1-3.78A45.19,45.19,0,0,1,149,17.79c-.07,1.66-.17,3.33-.24,5-.08,1.88.07,3.84-.86,5.58-.14.27-.55.13-.58-.13-.32-3.26.71-6.84-.41-10-.25,2.45-.48,4.88-.84,7.32-.1.68-.28,4.06-1.58,4-1.93-.07-1.51-3-1.36-4.06a6.83,6.83,0,0,0,.17-1.8,7.61,7.61,0,0,0-1.41-2.85,22.66,22.66,0,0,1-1.75-4,26.87,26.87,0,0,0-2.35,6.91c-.28,1.47-1,2.61-2.82,2.16a1.79,1.79,0,0,1-1.14-1.33,34.32,34.32,0,0,0-1.17-3.82A32.84,32.84,0,0,0,129.1,15a13.5,13.5,0,0,1,.51,4.65A11.39,11.39,0,0,1,127.8,25a.32.32,0,0,1-.56-.05c-.84-1.75,0-3.62-.14-5.44a19.58,19.58,0,0,0-1.71-5.6c.14,1.46.26,3,.35,3.26a4.42,4.42,0,0,1-.84,2.37c-.8,1-2.83,3.74-3.56,4.66a24.61,24.61,0,0,1-3.84,2.87c-.88.64-3,2-3,2a7,7,0,0,0,1.84,1.16c.76.23,5.72,1.64,6.74,2.29,0,0,2.41-.13,3.11-.07a17.88,17.88,0,0,1,2.81.85,49.36,49.36,0,0,0,5.05.23l1.8.93,2.71-.55s4.49.43,4.57.38,2.32-.24,2.32-.24a11,11,0,0,0,1.84.7,8.7,8.7,0,0,0,2.21.23,7.87,7.87,0,0,1,2.37.22,11,11,0,0,1,3.83.75l1.13-.87a6.24,6.24,0,0,0,1.46,0,15,15,0,0,1,2.54.31c.48,0,1.83-.24,1.83-.24a1.33,1.33,0,0,0,1.12.54c.8,0,6.83.22,7,.53s8.2-.44,8.2-.44,3.68.44,4.38.59,1.61.22,1.61.22l2.63.64,9.48-.42,6.75.33s4.63-.85,4.83-.91,3.65-.09,3.65-.09l-.4-14.39A15.72,15.72,0,0,1,210.46,26.38Z"/><path class="cls-30" d="M211.94,28.44c-.11,1.09-.06,2.2-.19,3.29-.21,1.77-1.62,3.61-3.5,1.89-1.17-1.07-1.64-2.67-2.85-3.7a12.14,12.14,0,0,0-5-2.54c-2.35-.43-3.89,1.09-5.21,2.66-1.15,1.38-2.29,3.07-4,3.89-1.31.62-3.38,1-4.48-.19-1.28-1.37-1.38-3.43-1.34-5.15a34.6,34.6,0,0,1,.34-3.8,13.38,13.38,0,0,0-1,3.21c-.32,2.14.36,4.27-.27,6.38a.3.3,0,0,1-.37.21c-1.19-.35-2.83-.42-3.66-1.41-1-1.25-1.26-2.88-1.6-4.43a24,24,0,0,1-.2,2.81c-.16,1.31-.36,2.79-2.21,2.42s-3.6-1.27-4.36-3.06a30.42,30.42,0,0,1-1.17-4.53,10.88,10.88,0,0,1-.37,2.76,6.17,6.17,0,0,1-2.76,3.44c-.78.53-2.46,1.62-3.39.68a6.81,6.81,0,0,1-1.55-3.39,24.88,24.88,0,0,1-.06,2.59,2.21,2.21,0,0,1-.37,1.2c-.67.83-3.12-.09-3.81-.47-1.25-.69-1.49-2.18-1.67-3.39a47.36,47.36,0,0,0-1.17-6c0,1.35-.09,2.68-.21,4a15.83,15.83,0,0,0,0,4c.16.94.37,3.21-1.51,2.81-1.57-.34-2.33-2.15-2.83-3.88a6.3,6.3,0,0,1-.28,2.47.33.33,0,0,1-.38.21c-2.38-.32-2.31-3-2.25-5.22-.62,2.26-1.7,5-4.29,4.45-3.42-.73-5-3.51-6-6.47-.09,1.31-.57,2.32-2.19,1.76s-2.14-2.1-2.68-3.59a7.66,7.66,0,0,1-.8,2.45,6.37,6.37,0,0,1-3.16,3,.31.31,0,0,1-.47-.24,35.37,35.37,0,0,1,.85-5.75c-1.82,3.46-3.58,7.64-8.69,6.84-1.56-.24-3.58-.39-4.79-1.41a1.23,1.23,0,0,1-.49-.84l-1.07.69a7,7,0,0,0,1.84,1.16c.76.23,5.72,1.64,6.74,2.29,0,0,2.41-.13,3.11-.07a17.88,17.88,0,0,1,2.81.85,49.36,49.36,0,0,0,5.05.23l1.8.93,2.71-.55s4.49.43,4.57.38,2.32-.24,2.32-.24a11,11,0,0,0,1.84.7,8.7,8.7,0,0,0,2.21.23,7.87,7.87,0,0,1,2.37.22,11,11,0,0,1,3.83.75l1.13-.87a6.24,6.24,0,0,0,1.46,0,15,15,0,0,1,2.54.31c.48,0,1.83-.24,1.83-.24a1.33,1.33,0,0,0,1.12.54c.8,0,6.83.22,7,.53s8.2-.44,8.2-.44,3.68.44,4.38.59,1.61.22,1.61.22l2.63.64,9.48-.42,6.75.33s4.63-.85,4.83-.91,3.65-.09,3.65-.09l-.24-8.68C212,27.8,212,28.12,211.94,28.44Z"/><path class="cls-3" d="M211.57,4.65s-3.35.11-5.08.11a45.47,45.47,0,0,0-5.85.87s-4-.33-5.06-.61-1,.24-2.16.05l-1.81-.27a11.94,11.94,0,0,1,2,1.38c.52.55,1,1.41,1.25,1.55a15.91,15.91,0,0,1-2.14-1.07c-.25-.22-1.6-1.54-1.6-1.54a4.14,4.14,0,0,1-1.85,0s-2.56,0-4.27.1a19.14,19.14,0,0,1-4.37-.21,61.46,61.46,0,0,0-7.33.17s-6.17.08-7.72.06a27.67,27.67,0,0,1-2.85-.23,41.71,41.71,0,0,0-4.68.48,12.18,12.18,0,0,1-2.5.42c-.7-.12-1.91-.32-2.57-.4a6.75,6.75,0,0,1-1.82-.65,10.9,10.9,0,0,0-3.7.69,13.92,13.92,0,0,1-3.86.18c-.9,0-4.93-.35-6.57.11a9.54,9.54,0,0,1-3.36.31c-1.55,0-7,.43-7,.43S126,8,126.29,8.3s1,.25,1.77.24,5.27,0,6.27-.1a14.56,14.56,0,0,1,3.52.33c.91.16.43,1.05,1.93.83a18.16,18.16,0,0,1,3,0A6,6,0,0,1,145,9.9,16.67,16.67,0,0,1,149.23,8l-1.7,2.12a9.71,9.71,0,0,0,2.36.27,14,14,0,0,1,2.57.35c.81.08,2.27.37,2.83.49a25.92,25.92,0,0,0,3.17.44c.5,0,1.07.53,1.27.66s1.31,1.86,1.77,1.95,1.85-.14,2.5-.06,4.66.77,5.12.71a13.06,13.06,0,0,1,3.27-2.48l1.93.84,3.49-2.67a11.06,11.06,0,0,0,1.27.61c.66.27,3.53.61,4,.88s.74,1.37,1,1.55.65.12,1.75-.23a27.87,27.87,0,0,1,4.26-.33c1-.11,3.66.15,3.82.1s1.22-1,2-1.48,1.09-.76,1.5-.22,1.25,1.59,1.46,1.82.9.07,1.75-.23a10.06,10.06,0,0,1,2.5-.24c1-.12,2.31-.2,2.31-.2s3.32.16,4.73.31a8.23,8.23,0,0,0,1.64.1Z"/><path class="cls-31" d="M211.57,4.65s-3.35.11-5.08.11a45.47,45.47,0,0,0-5.85.87s-4-.33-5.06-.61-1,.24-2.16.05l-1.81-.27a11.94,11.94,0,0,1,2,1.38c.52.55,1,1.41,1.25,1.55a15.91,15.91,0,0,1-2.14-1.07c-.25-.22-1.6-1.54-1.6-1.54a4.14,4.14,0,0,1-1.85,0s-2.56,0-4.27.1a19.14,19.14,0,0,1-4.37-.21,61.46,61.46,0,0,0-7.33.17s-6.17.08-7.72.06a27.67,27.67,0,0,1-2.85-.23,41.71,41.71,0,0,0-4.68.48,12.18,12.18,0,0,1-2.5.42c-.7-.12-1.91-.32-2.57-.4a6.75,6.75,0,0,1-1.82-.65,10.9,10.9,0,0,0-3.7.69,13.92,13.92,0,0,1-3.86.18c-.9,0-4.93-.35-6.57.11a9.54,9.54,0,0,1-3.36.31c-1.55,0-7,.43-7,.43S126,8,126.29,8.3s1,.25,1.77.24,5.27,0,6.27-.1a14.56,14.56,0,0,1,3.52.33c.91.16.43,1.05,1.93.83a18.16,18.16,0,0,1,3,0A6,6,0,0,1,145,9.9,16.67,16.67,0,0,1,149.23,8l-1.7,2.12a9.71,9.71,0,0,0,2.36.27,14,14,0,0,1,2.57.35c.81.08,2.27.37,2.83.49a25.92,25.92,0,0,0,3.17.44c.5,0,1.07.53,1.27.66s1.31,1.86,1.77,1.95,1.85-.14,2.5-.06,4.66.77,5.12.71a13.06,13.06,0,0,1,3.27-2.48l1.93.84,3.49-2.67a11.06,11.06,0,0,0,1.27.61c.66.27,3.53.61,4,.88s.74,1.37,1,1.55.65.12,1.75-.23a27.87,27.87,0,0,1,4.26-.33c1-.11,3.66.15,3.82.1s1.22-1,2-1.48,1.09-.76,1.5-.22,1.25,1.59,1.46,1.82.9.07,1.75-.23a10.06,10.06,0,0,1,2.5-.24c1-.12,2.31-.2,2.31-.2s3.32.16,4.73.31a8.23,8.23,0,0,0,1.64.1Z"/><path class="cls-32" d="M211.57,4.65s-3.35.11-5.08.11a45.47,45.47,0,0,0-5.85.87s-4-.33-5.06-.61-1,.24-2.16.05l-1.81-.27a11.94,11.94,0,0,1,2,1.38c.52.55,1,1.41,1.25,1.55a15.91,15.91,0,0,1-2.14-1.07c-.25-.22-1.6-1.54-1.6-1.54a4.14,4.14,0,0,1-1.85,0s-2.56,0-4.27.1a19.14,19.14,0,0,1-4.37-.21,61.46,61.46,0,0,0-7.33.17s-6.17.08-7.72.06a27.67,27.67,0,0,1-2.85-.23,41.71,41.71,0,0,0-4.68.48,12.18,12.18,0,0,1-2.5.42c-.7-.12-1.91-.32-2.57-.4a6.75,6.75,0,0,1-1.82-.65,10.9,10.9,0,0,0-3.7.69,13.92,13.92,0,0,1-3.86.18c-.9,0-4.93-.35-6.57.11a9.54,9.54,0,0,1-3.36.31c-1.55,0-7,.43-7,.43S126,8,126.29,8.3s1,.25,1.77.24,5.27,0,6.27-.1a14.56,14.56,0,0,1,3.52.33c.91.16.43,1.05,1.93.83a18.16,18.16,0,0,1,3,0A6,6,0,0,1,145,9.9,16.67,16.67,0,0,1,149.23,8l-1.7,2.12a9.71,9.71,0,0,0,2.36.27,14,14,0,0,1,2.57.35c.81.08,2.27.37,2.83.49a25.92,25.92,0,0,0,3.17.44c.5,0,1.07.53,1.27.66s1.31,1.86,1.77,1.95,1.85-.14,2.5-.06,4.66.77,5.12.71a13.06,13.06,0,0,1,3.27-2.48l1.93.84,3.49-2.67a11.06,11.06,0,0,0,1.27.61c.66.27,3.53.61,4,.88s.74,1.37,1,1.55.65.12,1.75-.23a27.87,27.87,0,0,1,4.26-.33c1-.11,3.66.15,3.82.1s1.22-1,2-1.48,1.09-.76,1.5-.22,1.25,1.59,1.46,1.82.9.07,1.75-.23a10.06,10.06,0,0,1,2.5-.24c1-.12,2.31-.2,2.31-.2s3.32.16,4.73.31a8.23,8.23,0,0,0,1.64.1Z"/><path class="cls-33" d="M142.16,9.47A9.19,9.19,0,0,1,139.45,9c-1-.4-1.87-1.26-3-1.29-1.39,0-2.78.2-4.18.21a31.79,31.79,0,0,0-5,.27.31.31,0,0,1-.38-.19,4.06,4.06,0,0,1-.07-1.38h-.13S126,8,126.29,8.3s1,.25,1.77.24,5.27,0,6.27-.1a14.56,14.56,0,0,1,3.52.33c.91.16.43,1.05,1.93.83a18.16,18.16,0,0,1,3,0A6,6,0,0,1,145,9.9s.52-.32,1.26-.71A17.32,17.32,0,0,1,142.16,9.47Z"/><path class="cls-33" d="M207.07,11.93a12.14,12.14,0,0,1-5-2.76,4.43,4.43,0,0,0,1.24,2.13.24.24,0,0,1,0,.38.26.26,0,0,1,.08.19V12a.31.31,0,0,1-.3.29,1.07,1.07,0,0,1-.59-.1,8.81,8.81,0,0,1-3,0,11.47,11.47,0,0,1-2.57-1.56,7.33,7.33,0,0,1-3.12,1.62c-.86.11-1.73-.12-2.6-.06s-1.85.2-2.77.32a12.33,12.33,0,0,1-2.78.15,2.62,2.62,0,0,1-1.08-.28c-.44-.25-.28-.58-1-.69A28.77,28.77,0,0,1,177.86,10,16.24,16.24,0,0,1,175,12c-1,.5-1.9-.07-2.7-.68a13.69,13.69,0,0,1-4.47,2.49,10.09,10.09,0,0,1-5.74-.7c-1-.5-1.81-1.34-2.83-1.82a12.41,12.41,0,0,0-3.51-1c-2.3-.35-4.62-.41-6.93-.61-.24,0-.38-.21-.28-.42s.2-.41.31-.62l-.13,0-1.19,1.49a9.71,9.71,0,0,0,2.36.27,14,14,0,0,1,2.57.35c.81.08,2.27.37,2.83.49a25.92,25.92,0,0,0,3.17.44c.5,0,1.07.53,1.27.66s1.31,1.86,1.77,1.95,1.85-.14,2.5-.06,4.66.77,5.12.71a13.06,13.06,0,0,1,3.27-2.48l1.93.84,3.49-2.67a11.06,11.06,0,0,0,1.27.61c.66.27,3.53.61,4,.88s.74,1.37,1,1.55.65.12,1.75-.23a27.87,27.87,0,0,1,4.26-.33c1-.11,3.66.15,3.82.1s1.22-1,2-1.48,1.09-.76,1.5-.22,1.25,1.59,1.46,1.82.9.07,1.75-.23a10.06,10.06,0,0,1,2.5-.24c1-.12,2.31-.2,2.31-.2s3.32.16,4.73.31a8.23,8.23,0,0,0,1.64.1l0-.94A22.46,22.46,0,0,1,207.07,11.93Z"/><path class="cls-34" d="M201.92,10.55c.6.43,1.19.88,1.79,1.32.37.27.72.54,1,.83l.67,0,1.47.08a7.23,7.23,0,0,1-2-1.07c-.56-.46-1.07-1-1.67-1.37a13.2,13.2,0,0,1-1.7-1.13c-.45-.45-.73-.93-1.2-1.33a5.38,5.38,0,0,1,.58,1.41A6.64,6.64,0,0,0,201.92,10.55Z"/><path class="cls-35" d="M20.62,2.52c.16,1.17-3,2.65-4.84,2-1.29-.46-1.48-1.69-1.49-2.83,0-.28,0-.62,0-1A20.74,20.74,0,0,0,16.71.37c1.06-.29.95.24,2.16,0L20.68.15A8.13,8.13,0,0,0,20.62,2.52Z"/><path class="cls-3" d="M97.82,24.47A7,7,0,0,1,96,25.64a55.29,55.29,0,0,0-6.74,2.28s-2.41-.12-3.11-.07a17.28,17.28,0,0,0-2.81.86c-.63.19-5,.23-5,.23l-1.81.93-2.7-.56s-4.49.44-4.57.39-2.33-.24-2.33-.24a10.88,10.88,0,0,1-1.83.7,8.39,8.39,0,0,1-2.21.22,8.22,8.22,0,0,0-2.37.22,10.91,10.91,0,0,0-3.84.76l-1.13-.87a5.88,5.88,0,0,1-1.45,0,15,15,0,0,0-2.55.32c-.47,0-1.82-.25-1.82-.25a1.37,1.37,0,0,1-1.12.55c-.8,0-6.84.21-7,.53s-8.19-.45-8.19-.45-3.68.45-4.39.59a14.58,14.58,0,0,1-1.61.22l-2.63.64-9.47-.41-6.75.33s-4.63-.86-4.83-.92S0,31.52,0,31.52L.8,2.46l85-.49a10.23,10.23,0,0,1,2.3,2.38c.14.35-.57,1.65-.81,2.27s-.53,5.46-.69,5.94a4.41,4.41,0,0,0,.83,2.38c.81,1,2.84,3.74,3.57,4.66s3,2.22,3.83,2.86S97.82,24.47,97.82,24.47Z"/><path class="cls-36" d="M14.67,4.44c1.45.89,2.88,1.82,4.29,2.77A59.38,59.38,0,0,1,15.84,14a57.74,57.74,0,0,1,.06,8.62C15,17,13.9,11.42,12.75,5.87,13.39,5.39,14,4.93,14.67,4.44Z"/><path class="cls-37" d="M15.72,20.3c-.22-2.25-.43-4.51-.49-6.76-.05-2,.13-3.94.22-5.93a12.53,12.53,0,0,0-.1-2.74c1.22.76,2.42,1.54,3.61,2.34A59.38,59.38,0,0,1,15.84,14a57.74,57.74,0,0,1,.06,8.62l-.09-.54C15.81,21.51,15.77,20.9,15.72,20.3Z"/><path class="cls-38" d="M17,10.1c.22-.76-.74-1.83-1.46-2.07A2.1,2.1,0,0,0,13.38,9l-.63-3.1c.64-.48,1.29-.94,1.92-1.43,1.45.89,2.88,1.82,4.29,2.77a60.54,60.54,0,0,1-3.1,6.8C16.14,12.7,16.62,11.45,17,10.1Z"/><path class="cls-39" d="M12,2.4c1.41,6.67,2.79,13.45,3.88,20.26A57.74,57.74,0,0,0,15.84,14,52.85,52.85,0,0,0,20.51,2.35l8.77-.05a16.52,16.52,0,0,0-.39,2.1c-.17,1.69-.37,3.37-.66,5s-.54,3.08-.71,4.65c-.05.45-.1.93-.17,1.39-.45.9-1.21,1.75-1.19,2.76,0,1.6.86,3.05,1,4.66s-.23,3.21-.25,4.85A35.8,35.8,0,0,0,27.12,32l-2.42.59-9.47-.41-6.75.33s-4.63-.86-4.83-.92S0,31.52,0,31.52L.8,2.46Z"/><path class="cls-40" d="M81.36,13.06C82.91,9.46,84.69,5.77,85.48,2h.27a10.23,10.23,0,0,1,2.3,2.38c.14.35-.57,1.65-.81,2.27s-.53,5.46-.69,5.94a4.41,4.41,0,0,0,.83,2.38c.81,1,2.84,3.74,3.57,4.66s3,2.22,3.83,2.86,3,2,3,2A7,7,0,0,1,96,25.64a55.29,55.29,0,0,0-6.74,2.28s-2.41-.12-3.11-.07h0c-.89-1.9-1.79-3.77-2.52-5.58C82.27,19.47,82,16.2,81.36,13.06Z"/><path class="cls-41" d="M78.8,20.77a35,35,0,0,1,2.56-7.71c.67,3.14.91,6.41,2.22,9.21.73,1.81,1.63,3.68,2.52,5.58a19.12,19.12,0,0,0-2.78.86c-.63.19-5,.23-5,.23l-.44.22C78.13,26.32,78.43,23.48,78.8,20.77Z"/><path class="cls-42" d="M72.2,12.48C73.47,9.06,74.7,5.63,74.73,2L85.48,2c-1.36,6.54-5.66,12.76-6.68,18.8-.37,2.71-.67,5.55-1,8.39l-1.37.71-2.36-.49C74.31,23.63,74.27,17.92,72.2,12.48Z"/><path class="cls-43" d="M76.34,4.75c-1.21.32-1.6,2.32-1.83,3.24a35.82,35.82,0,0,1-2,5.27c-.09-.26-.18-.52-.28-.78C73.47,9.06,74.7,5.63,74.73,2L85.48,2c-.09.43-.19.85-.3,1.27-2,2.07-6,1.07-8.66,1.4A.21.21,0,0,0,76.34,4.75Z"/><path class="cls-44" d="M71,18.93c-.31.27-.59-.57-.9-.3.55-2.07,1.32-4.11,2.08-6.15,2.07,5.44,2.11,11.15,1.9,16.9l-.34-.07s-4.49.44-4.57.39h0C69.9,26.11,70.92,22.53,71,18.93Z"/><path class="cls-45" d="M67.78,2.08l3.38,0a41.25,41.25,0,0,1-6,11.94C65.66,10.09,67.48,6.11,67.78,2.08Z"/><path class="cls-46" d="M71.16,2.06l3.57,0c0,5.72-3.13,11-4.61,16.59.31-.27.59.57.9.3-.1,3.6-1.12,7.18-1.85,10.76-.21-.05-2.31-.23-2.31-.23l-.21.1c-.44-4.32-1.52-8.63-1.6-12.71a14.31,14.31,0,0,1,.1-2.85A41.25,41.25,0,0,0,71.16,2.06Z"/><path class="cls-47" d="M62.34,2.11l5.44,0c-.3,4-2.12,8-2.63,11.92a14.31,14.31,0,0,0-.1,2.85c.08,4.08,1.16,8.39,1.6,12.71a9.35,9.35,0,0,1-1.62.6l-.22,0a7.85,7.85,0,0,0-.09-1.43c-1.8-8-2.22-15.77-.19-23.44A9.46,9.46,0,0,1,62.34,2.11Z"/><path class="cls-48" d="M65.84,4.73a.3.3,0,0,0-.32.27,22.55,22.55,0,0,1-1.29,5.27,26.51,26.51,0,0,0-.71,4.6c-.1,1-.2,2.06-.29,3.09a42,42,0,0,1,1.3-12.64,9.46,9.46,0,0,1-2.19-3.21l5.44,0a22.89,22.89,0,0,1-.48,3.06A7.88,7.88,0,0,0,65.84,4.73Z"/><path class="cls-49" d="M64.72,28.76a7.85,7.85,0,0,1,.09,1.43,6,6,0,0,1-2,.19,7.65,7.65,0,0,0-2.29.21A44.18,44.18,0,0,1,63.2,17.08,59.49,59.49,0,0,0,64.72,28.76Z"/><path class="cls-50" d="M56.32,16.64c.4-4.7,2-9.59,3.31-14.51l2.71,0a9.46,9.46,0,0,0,2.19,3.21A41.87,41.87,0,0,0,63.2,17.08a44.18,44.18,0,0,0-2.67,13.51h-.08a10.91,10.91,0,0,0-3.84.76l-.84-.65C55.94,26,56,21.22,56.32,16.64Z"/><path class="cls-51" d="M51,2.17h2.81a154.69,154.69,0,0,1-4.41,21.16C49.65,16.3,50.64,9.25,51,2.17Z"/><path class="cls-52" d="M49.42,22.36c.32-6.7,1.24-13.44,1.56-20.19h2.81Q53.43,4.79,53,7.4C49.45,11.44,50.05,17.38,49.42,22.36Z"/><path class="cls-53" d="M49.38,23.32A154.69,154.69,0,0,0,53.79,2.16l5.84,0c-1.2,4.51-2.64,9-3.18,13.35C53.93,20,50.76,24.25,49.35,29,49.29,27.11,49.31,25.21,49.38,23.32Z"/><path class="cls-54" d="M56.45,15.48c-.05.39-.1.78-.13,1.16-.34,4.58-.38,9.31-.55,14.07l-.29-.22a5.88,5.88,0,0,1-1.45,0,15,15,0,0,0-2.55.32c-.47,0-1.82-.25-1.82-.25a1.14,1.14,0,0,1-.23.24c0-.59-.06-1.18-.08-1.76C50.76,24.25,53.93,20,56.45,15.48Z"/><path class="cls-55" d="M44,2.21c-.92,5.07-1.81,10.13-2.48,15.2-.95,4.74-.64,9.5-.6,14.26-1.87,0-7.61-.52-7.61-.52l-.23,0a36.91,36.91,0,0,0,.08-6.48c0-.44,0-.89,0-1.32C34.31,16.08,37.53,9,40.66,2.23Z"/><path class="cls-56" d="M39.84,8.63c-1.77,1.24-2.52,3.6-3.36,5.42-.95,2.06-1.86,4.13-2.68,6.23,1.43-6.2,4.17-12.23,6.86-18l3.36,0c-.45,2.5-.9,5-1.31,7.49a13.94,13.94,0,0,0-2.5-1.26A.27.27,0,0,0,39.84,8.63Z"/><path class="cls-57" d="M32.67,12.21c.32-1.26.6-2.54,1-3.79a43.6,43.6,0,0,0,1.63-6.15l5.38,0C37.53,9,34.31,16.08,33.2,23.38a37.14,37.14,0,0,0-.48-6.3A11.12,11.12,0,0,1,32.67,12.21Z"/><path class="cls-58" d="M35.11,7.25a.29.29,0,0,0-.48,0,19.5,19.5,0,0,0-1.78,7.06c-.09.77-.15,1.53-.2,2.3a10.25,10.25,0,0,1,0-4.41c.32-1.26.6-2.54,1-3.79a43.6,43.6,0,0,0,1.63-6.15l5.38,0C39.35,5.06,38,8,36.85,10.87A6.46,6.46,0,0,0,37,8.77a.28.28,0,0,0-.14-.19,7.66,7.66,0,0,0-1.63-1.29Z"/><path class="cls-59" d="M41.14,20c.1-.85.23-1.7.4-2.56C42.21,12.34,43.1,7.28,44,2.21l4.49,0a63.32,63.32,0,0,0-3.2,13.07A48.77,48.77,0,0,0,41.14,20Z"/><path class="cls-60" d="M41.14,20a48.77,48.77,0,0,1,4.17-4.71,63.32,63.32,0,0,1,3.2-13.07l2.47,0c-.46,9.58-2.13,19.11-1.55,28.59a1.49,1.49,0,0,1-.89.31c-.8,0-6.84.21-7,.53,0,0-.24.07-.58.07A95.16,95.16,0,0,1,41.14,20Z"/><path class="cls-61" d="M1.82,21.73c.94,1.85,2,3.07,4.32,2.19,1.2-.46,2.41-.9,3.58-1.4s3.29-1.75,4.57-1,1.85,1.79,2.94,2.52a6.62,6.62,0,0,0,3.05,1c1.66.18,4.41.76,5.16-1.16a4.92,4.92,0,0,0,.21-2.58c-.23-1.45-1.12-3.24,0-4.53a14.51,14.51,0,0,0,2.47-4.32,10.65,10.65,0,0,1-.39,3.39,6.43,6.43,0,0,0-.68,3v0c.33,1.82,1.84,3.5,1.64,5.39-.16,1.38-.59,2.84.14,4.15a.33.33,0,0,0,.48.07c2.66-1.94,3.11-5.48,2.88-8.4-.15-1.86-.71-3.7-.41-5.58a20.65,20.65,0,0,1,1.76-5.19c-.12.85-.22,1.71-.27,2.56-.08,1.46-.53,3.71.39,5a.33.33,0,0,0,.48.07,7,7,0,0,0,1.26-1.53,18.84,18.84,0,0,0-.3,10.11.31.31,0,0,0,.37.21,7.52,7.52,0,0,0,3.66-1.74,6.32,6.32,0,0,0,1.49-3.67,72.1,72.1,0,0,1,1.94-8.21,26.52,26.52,0,0,0-.1,4.54.3.3,0,0,0,.38.28,9.27,9.27,0,0,0,2.68-1.54c-1.26,1.71-2.87,3.3-3.21,5.37-.28,1.63-.63,4.33,1.5,5,1.39.44,4.23,1.07,5-.59.52-1.16.38-2.38.65-3.58l0-.09a22.94,22.94,0,0,0,.19,3.7c0,.3.5.26.59,0a64.9,64.9,0,0,1,4.2-8.43c1-1.88,1.8-3.86,2.91-5.69a53.15,53.15,0,0,0,0,9.77c.17,1.88,0,3.8.21,5.68,0,.38.14,1,.75.9.95-.21,1.46-1.31,1.63-2.09a22.52,22.52,0,0,1,1-3.78,43.79,43.79,0,0,0,2.34-8.4c.08,1.67.18,3.33.25,5,.08,1.89-.07,3.84.85,5.58a.32.32,0,0,0,.58-.13c.32-3.25-.7-6.83.42-10,.25,2.44.48,4.88.84,7.32.1.67.28,4,1.58,4,1.93-.08,1.51-3,1.36-4.07A7.26,7.26,0,0,1,69,19.06a7.64,7.64,0,0,1,1.42-2.85,22.2,22.2,0,0,0,1.74-4,26.56,26.56,0,0,1,2.35,6.9c.29,1.47,1,2.62,2.83,2.16a1.81,1.81,0,0,0,1.14-1.33,31.62,31.62,0,0,1,1.17-3.81,32.92,32.92,0,0,1,3.53-5.77A13.56,13.56,0,0,0,82.68,15a11.52,11.52,0,0,0,1.8,5.4.33.33,0,0,0,.57,0c.84-1.76,0-3.63.14-5.45a19.5,19.5,0,0,1,1.7-5.59c-.13,1.46-.26,3-.34,3.25a4.41,4.41,0,0,0,.83,2.38c.81,1,2.84,3.74,3.57,4.66s3,2.22,3.83,2.86,3,2,3,2A7,7,0,0,1,96,25.64a55.29,55.29,0,0,0-6.74,2.28s-2.41-.12-3.11-.07a17.28,17.28,0,0,0-2.81.86c-.63.19-5,.23-5,.23l-1.81.93-2.7-.56s-4.49.44-4.57.39-2.33-.24-2.33-.24a10.88,10.88,0,0,1-1.83.7,8.39,8.39,0,0,1-2.21.22,8.22,8.22,0,0,0-2.37.22,10.91,10.91,0,0,0-3.84.76l-1.13-.87a5.88,5.88,0,0,1-1.45,0,15,15,0,0,0-2.55.32c-.47,0-1.82-.25-1.82-.25a1.37,1.37,0,0,1-1.12.55c-.8,0-6.84.21-7,.53s-8.19-.45-8.19-.45-3.68.45-4.39.59a14.58,14.58,0,0,1-1.61.22l-2.63.64-9.47-.41-6.75.33s-4.63-.86-4.83-.92S0,31.52,0,31.52L.39,17.13A15.87,15.87,0,0,0,1.82,21.73Z"/><path class="cls-62" d="M.35,23.79c.11,1.1.06,2.2.19,3.29C.75,28.86,2.15,30.7,4,29c1.17-1.07,1.63-2.68,2.85-3.71a12.06,12.06,0,0,1,5-2.53c2.34-.44,3.89,1.08,5.2,2.65,1.16,1.39,2.3,3.07,4,3.9,1.3.62,3.38,1,4.48-.19,1.27-1.37,1.37-3.43,1.33-5.15a34.76,34.76,0,0,0-.33-3.81,13.6,13.6,0,0,1,1,3.22c.31,2.14-.36,4.26.26,6.38a.33.33,0,0,0,.38.21c1.19-.35,2.83-.42,3.66-1.41,1.05-1.25,1.26-2.88,1.59-4.43a26.73,26.73,0,0,0,.2,2.81c.16,1.3.36,2.79,2.22,2.42s3.6-1.28,4.35-3.06a29.57,29.57,0,0,0,1.18-4.53,10.8,10.8,0,0,0,.37,2.75,6.19,6.19,0,0,0,2.75,3.44c.79.53,2.46,1.63,3.4.69a6.89,6.89,0,0,0,1.55-3.39,25,25,0,0,0,.06,2.59A2.12,2.12,0,0,0,50,29c.67.84,3.12-.09,3.81-.47,1.24-.69,1.49-2.18,1.67-3.38a45.52,45.52,0,0,1,1.17-6.05c0,1.35.09,2.69.21,4.05a16.22,16.22,0,0,1,0,4c-.16.95-.37,3.22,1.5,2.82,1.58-.34,2.34-2.16,2.84-3.88a6.14,6.14,0,0,0,.28,2.47.32.32,0,0,0,.37.2c2.39-.32,2.31-3,2.26-5.22.62,2.27,1.69,5,4.29,4.45,3.42-.72,5-3.5,6-6.47.08,1.31.56,2.33,2.19,1.76s2.14-2.09,2.68-3.58A7.72,7.72,0,0,0,80,22.17a6.48,6.48,0,0,0,3.17,3,.32.32,0,0,0,.47-.24,34.05,34.05,0,0,0-.86-5.75c1.83,3.45,3.58,7.63,8.7,6.84,1.55-.24,3.57-.4,4.78-1.42a1.23,1.23,0,0,0,.5-.84l1.07.69A7,7,0,0,1,96,25.64a55.29,55.29,0,0,0-6.74,2.28s-2.41-.12-3.11-.07a17.28,17.28,0,0,0-2.81.86c-.63.19-5,.23-5,.23l-1.81.93-2.7-.56s-4.49.44-4.57.39-2.33-.24-2.33-.24a10.88,10.88,0,0,1-1.83.7,8.39,8.39,0,0,1-2.21.22,8.22,8.22,0,0,0-2.37.22,10.91,10.91,0,0,0-3.84.76l-1.13-.87a5.88,5.88,0,0,1-1.45,0,15,15,0,0,0-2.55.32c-.47,0-1.82-.25-1.82-.25a1.37,1.37,0,0,1-1.12.55c-.8,0-6.84.21-7,.53s-8.19-.45-8.19-.45-3.68.45-4.39.59a14.58,14.58,0,0,1-1.61.22l-2.63.64-9.47-.41-6.75.33s-4.63-.86-4.83-.92S0,31.52,0,31.52l.24-8.68C.28,23.16.31,23.48.35,23.79Z"/><path class="cls-3" d="M.72,0S4.06.11,5.8.12A44.18,44.18,0,0,1,11.65,1s4-.32,5.06-.61.95.24,2.16,0L20.68.15a11.57,11.57,0,0,0-2,1.39c-.52.54-1.05,1.41-1.25,1.54A16.87,16.87,0,0,0,19.52,2c.26-.23,1.6-1.55,1.6-1.55A4.27,4.27,0,0,0,23,.52s2.56,0,4.26.1A20.44,20.44,0,0,0,31.62.41a61.27,61.27,0,0,1,7.32.17s6.17.08,7.73.05A22.9,22.9,0,0,0,49.52.4a41.77,41.77,0,0,1,4.67.48,11,11,0,0,0,2.5.42c.71-.11,1.92-.31,2.57-.39A7.45,7.45,0,0,0,61.09.26a10.79,10.79,0,0,1,3.69.68,13.59,13.59,0,0,0,3.86.19c.91,0,4.93-.35,6.58.1a9.06,9.06,0,0,0,3.35.31c1.56,0,7,.43,7,.43s.7,1.37.39,1.69-1,.25-1.76.23S79,3.91,78,3.79a14.51,14.51,0,0,0-3.52.34c-.91.16-.43,1-1.94.83a19.46,19.46,0,0,0-3,0,6,6,0,0,0-2.16.34,17,17,0,0,0-4.27-1.9l1.7,2.12a9.74,9.74,0,0,1-2.37.27,13.38,13.38,0,0,0-2.57.36A26.71,26.71,0,0,0,57,6.59,28.12,28.12,0,0,1,53.82,7c-.5,0-1.06.53-1.27.67s-1.3,1.86-1.76,1.94-1.85-.13-2.51-.06-4.65.77-5.12.72A12.7,12.7,0,0,0,39.9,7.81L38,8.64,34.48,6a10.82,10.82,0,0,1-1.28.62c-.66.26-3.53.61-4,.88s-.74,1.36-1,1.54-.66.13-1.75-.22a26.75,26.75,0,0,0-4.26-.33c-.95-.12-3.67.14-3.82.09s-1.23-1-2-1.48-1.08-.76-1.49-.21-1.25,1.58-1.46,1.81-.91.07-1.75-.22a10.64,10.64,0,0,0-2.5-.25C8.12,8.09,6.86,8,6.86,8s-3.32.15-4.73.31a8.23,8.23,0,0,1-1.64.1Z"/><path class="cls-63" d="M.72,0S4.06.11,5.8.12A44.18,44.18,0,0,1,11.65,1s4-.32,5.06-.61.95.24,2.16,0L20.68.15a11.57,11.57,0,0,0-2,1.39c-.52.54-1.05,1.41-1.25,1.54A16.87,16.87,0,0,0,19.52,2c.26-.23,1.6-1.55,1.6-1.55A4.27,4.27,0,0,0,23,.52s2.56,0,4.26.1A20.44,20.44,0,0,0,31.62.41a61.27,61.27,0,0,1,7.32.17s6.17.08,7.73.05A22.9,22.9,0,0,0,49.52.4a41.77,41.77,0,0,1,4.67.48,11,11,0,0,0,2.5.42c.71-.11,1.92-.31,2.57-.39A7.45,7.45,0,0,0,61.09.26a10.79,10.79,0,0,1,3.69.68,13.59,13.59,0,0,0,3.86.19c.91,0,4.93-.35,6.58.1a9.06,9.06,0,0,0,3.35.31c1.56,0,7,.43,7,.43s.7,1.37.39,1.69-1,.25-1.76.23S79,3.91,78,3.79a14.51,14.51,0,0,0-3.52.34c-.91.16-.43,1-1.94.83a19.46,19.46,0,0,0-3,0,6,6,0,0,0-2.16.34,17,17,0,0,0-4.27-1.9l1.7,2.12a9.74,9.74,0,0,1-2.37.27,13.38,13.38,0,0,0-2.57.36A26.71,26.71,0,0,0,57,6.59,28.12,28.12,0,0,1,53.82,7c-.5,0-1.06.53-1.27.67s-1.3,1.86-1.76,1.94-1.85-.13-2.51-.06-4.65.77-5.12.72A12.7,12.7,0,0,0,39.9,7.81L38,8.64,34.48,6a10.82,10.82,0,0,1-1.28.62c-.66.26-3.53.61-4,.88s-.74,1.36-1,1.54-.66.13-1.75-.22a26.75,26.75,0,0,0-4.26-.33c-.95-.12-3.67.14-3.82.09s-1.23-1-2-1.48-1.08-.76-1.49-.21-1.25,1.58-1.46,1.81-.91.07-1.75-.22a10.64,10.64,0,0,0-2.5-.25C8.12,8.09,6.86,8,6.86,8s-3.32.15-4.73.31a8.23,8.23,0,0,1-1.64.1Z"/><path class="cls-64" d="M.72,0S4.06.11,5.8.12A44.18,44.18,0,0,1,11.65,1s4-.32,5.06-.61.95.24,2.16,0L20.68.15a11.57,11.57,0,0,0-2,1.39c-.52.54-1.05,1.41-1.25,1.54A16.87,16.87,0,0,0,19.52,2c.26-.23,1.6-1.55,1.6-1.55A4.27,4.27,0,0,0,23,.52s2.56,0,4.26.1A20.44,20.44,0,0,0,31.62.41a61.27,61.27,0,0,1,7.32.17s6.17.08,7.73.05A22.9,22.9,0,0,0,49.52.4a41.77,41.77,0,0,1,4.67.48,11,11,0,0,0,2.5.42c.71-.11,1.92-.31,2.57-.39A7.45,7.45,0,0,0,61.09.26a10.79,10.79,0,0,1,3.69.68,13.59,13.59,0,0,0,3.86.19c.91,0,4.93-.35,6.58.1a9.06,9.06,0,0,0,3.35.31c1.56,0,7,.43,7,.43s.7,1.37.39,1.69-1,.25-1.76.23S79,3.91,78,3.79a14.51,14.51,0,0,0-3.52.34c-.91.16-.43,1-1.94.83a19.46,19.46,0,0,0-3,0,6,6,0,0,0-2.16.34,17,17,0,0,0-4.27-1.9l1.7,2.12a9.74,9.74,0,0,1-2.37.27,13.38,13.38,0,0,0-2.57.36A26.71,26.71,0,0,0,57,6.59,28.12,28.12,0,0,1,53.82,7c-.5,0-1.06.53-1.27.67s-1.3,1.86-1.76,1.94-1.85-.13-2.51-.06-4.65.77-5.12.72A12.7,12.7,0,0,0,39.9,7.81L38,8.64,34.48,6a10.82,10.82,0,0,1-1.28.62c-.66.26-3.53.61-4,.88s-.74,1.36-1,1.54-.66.13-1.75-.22a26.75,26.75,0,0,0-4.26-.33c-.95-.12-3.67.14-3.82.09s-1.23-1-2-1.48-1.08-.76-1.49-.21-1.25,1.58-1.46,1.81-.91.07-1.75-.22a10.64,10.64,0,0,0-2.5-.25C8.12,8.09,6.86,8,6.86,8s-3.32.15-4.73.31a8.23,8.23,0,0,1-1.64.1Z"/><path class="cls-33" d="M70.12,4.82a8.89,8.89,0,0,0,2.72-.48c1-.39,1.87-1.25,3-1.28,1.39,0,2.78.19,4.18.2a31.6,31.6,0,0,1,5,.27c.16,0,.35,0,.39-.18A4.13,4.13,0,0,0,85.47,2h.13s.7,1.37.39,1.69-1,.25-1.76.23S79,3.91,78,3.79a14.51,14.51,0,0,0-3.52.34c-.91.16-.43,1-1.94.83a19.46,19.46,0,0,0-3,0,6,6,0,0,0-2.16.34s-.52-.32-1.26-.7A17.77,17.77,0,0,0,70.12,4.82Z"/><path class="cls-33" d="M5.21,7.29a12.2,12.2,0,0,0,5-2.77A4.46,4.46,0,0,1,9,6.66.24.24,0,0,0,9,7a.26.26,0,0,0-.09.19v.09a.31.31,0,0,0,.3.29,1,1,0,0,0,.58-.11,8.87,8.87,0,0,0,3,0,11.47,11.47,0,0,0,2.57-1.56,7.11,7.11,0,0,0,3.12,1.62c.86.11,1.73-.11,2.6-.06s1.84.2,2.77.32A11.19,11.19,0,0,0,26.63,8a2.82,2.82,0,0,0,1.09-.27c.44-.26.28-.58,1-.7a28.94,28.94,0,0,0,5.67-1.67,16,16,0,0,0,2.85,2c1,.5,1.91-.06,2.71-.67a14,14,0,0,0,4.46,2.49,10.22,10.22,0,0,0,5.75-.71c1-.5,1.8-1.33,2.82-1.82a12.45,12.45,0,0,1,3.52-1c2.29-.35,4.61-.41,6.93-.61a.29.29,0,0,0,.28-.42L63.44,4l.13,0,1.19,1.49a9.74,9.74,0,0,1-2.37.27,13.38,13.38,0,0,0-2.57.36A26.71,26.71,0,0,0,57,6.59,28.12,28.12,0,0,1,53.82,7c-.5,0-1.06.53-1.27.67s-1.3,1.86-1.76,1.94-1.85-.13-2.51-.06-4.65.77-5.12.72A12.7,12.7,0,0,0,39.9,7.81L38,8.64,34.48,6a10.82,10.82,0,0,1-1.28.62c-.66.26-3.53.61-4,.88s-.74,1.36-1,1.54-.66.13-1.75-.22a26.75,26.75,0,0,0-4.26-.33c-.95-.12-3.67.14-3.82.09s-1.23-1-2-1.48-1.08-.76-1.49-.21-1.25,1.58-1.46,1.81-.91.07-1.75-.22a10.64,10.64,0,0,0-2.5-.25C8.12,8.09,6.86,8,6.86,8s-3.32.15-4.73.31a8.23,8.23,0,0,1-1.64.1l0-1A22.4,22.4,0,0,0,5.21,7.29Z"/><path class="cls-65" d="M10.37,5.91c-.6.43-1.19.88-1.79,1.32-.37.27-.72.54-1,.83L6.86,8l-1.47.08A7.29,7.29,0,0,0,7.42,7C8,6.56,8.5,6.06,9.1,5.64a12.86,12.86,0,0,0,1.7-1.13c.45-.44.73-.93,1.2-1.32a5.55,5.55,0,0,0-.59,1.4A7,7,0,0,1,10.37,5.91Z"/></g></g></g></svg>