<svg xmlns="http://www.w3.org/2000/svg" viewBox="0 0 463.33 463.33"><defs><style>.cls-1,.cls-4{fill:#9ce8e6;}.cls-1{opacity:0.1;}.cls-2{fill:#7d0d98;}.cls-3{fill:#be2ab2;}.cls-4{opacity:0.3;}</style></defs><title>Asset 1</title><g id="Layer_2" data-name="Layer 2"><g id="Layer_1-2" data-name="Layer 1"><circle class="cls-1" cx="211.26" cy="206.72" r="199.16" transform="translate(-84.3 209.93) rotate(-45)"/><circle class="cls-1" cx="231.66" cy="231.66" r="231.66" transform="translate(-95.96 231.66) rotate(-45)"/><circle class="cls-2" cx="231.66" cy="231.66" r="168.93"/><path class="cls-3" d="M353,275.87c7.89-10.21,24.26-36,38.55-38.53,4.15-.72,7.06-.52,9,.43.07-2,.12-4.06.12-6.11a168.29,168.29,0,0,0-16.9-73.72c-22.92,7.55-57.65,6.3-71,23.27-9.63,12.27-8,27.81-18.09,40.7-12.08,15.42-29.72,21.4-46.09,30.73-8.81,5-46,21.27-45.45,32.36,1,19.91,40.65,8.11,50.11,2.84,20.07-11.19,70.19-88.81,93-81.79,43.67,13.42-34.85,71.39-47.56,78.84-33.38,19.6-70.12,37.25-109,31.86-33.66-4.67-66.27-2.19-85.17,26.16A169.44,169.44,0,0,0,160.73,385a123.39,123.39,0,0,0,14.87-7.6c39.5-24.34,87.81-27.82,127.49-53.93C322.71,310.59,338.94,294,353,275.87Z"/><path class="cls-3" d="M147.46,253.38c31.93-14.64,70.23-3.49,101.77-20,31.09-16.29,34.23-58.27,58.34-82.31,6.91-6.88,29.1-22.16,50.59-31.33a169.7,169.7,0,0,0-26.19-24c-1.34.16-2.66.33-3.94.51-23.45,3.33-45.17,11.69-64,27.66-19.34,16.38-28.52,42.41-49.33,56.74-32.6,22.45-78.41,8-105.36,41.09-14.51,17.8-23,41.18-37.4,59.68-.4.52-.82,1-1.23,1.54a167.65,167.65,0,0,0,12,28.37c.68-.3,1.37-.59,2-.9C112.33,297.78,120,266,147.46,253.38Z"/><path class="cls-3" d="M346.68,314.55c-27.73,17.35-56.45,39-86.67,56-21.08,11.88-42.78,18.17-63.92,26.28A169,169,0,0,0,399,255.13C387.39,276.24,355.8,308.84,346.68,314.55Z"/><path class="cls-3" d="M70.15,223.78C82.43,205.57,84.38,184.92,99,167.16c36.19-44.09,88.78-24.39,131.57-57.31C248.6,96,260.39,80.38,274.31,68.16A169.07,169.07,0,0,0,62.73,231.66c0,.29,0,.58,0,.87A58.84,58.84,0,0,0,70.15,223.78Z"/><path class="cls-4" d="M231.66,400.14a169,169,0,0,0,42.7-332.42c-1,6.3-.07,13.82,3.58,22.53,13.56,32.45,41.91,58.6,56.18,90.64,29.93,67.19,22.15,146-59,167.3-32.9,8.65-73.32,3.27-100.27-16.95-31-23.3-25.83-59.54-20-93.6C160.69,203.75,188,150,170.27,116c-4.71-9-22.68-28.72-43-17.58A168.93,168.93,0,0,0,231.66,400.14Z"/><path class="cls-4" d="M140.79,127.3c-26.24-20.37-56.4,44.57-56.68,70.1-.17,14.83-.08,33.25,9.65,45.57,10.76,13.63,29.74,2.69,35.55-10.43,8.26-18.67-6.69-42,3.17-59.14C143.81,153.75,149.85,134.33,140.79,127.3Z"/></g></g></svg>